<svg xmlns="http://www.w3.org/2000/svg" version="1.1" xmlns:xlink="http://www.w3.org/1999/xlink" xmlns:svgjs="http://svgjs.com/svgjs" width="1440" height="560" preserveAspectRatio="none" viewBox="0 0 1440 560"><g mask="url(&quot;#SvgjsMask1072&quot;)" fill="none"><rect width="1440" height="560" x="0" y="0" fill="#0e2a47"></rect><path d="M0 -57L49.36 -28.5L49.36 28.5L0 57L-49.36 28.5L-49.36 -28.5zM49.36 28.5L98.73 57L98.73 114L49.36 142.5L0 114L0 57zM0 114L49.36 142.5L49.36 199.5L0 228L-49.36 199.5L-49.36 142.5zM49.36 199.5L98.73 228L98.73 285L49.36 313.5L0 285L0 228zM0 285L49.36 313.5L49.36 370.5L0 399L-49.36 370.5L-49.36 313.5zM49.36 370.5L98.73 399L98.73 456L49.36 484.5L0 456L0 399zM0 456L49.36 484.5L49.36 541.5L0 570L-49.36 541.5L-49.36 484.5zM49.36 541.5L98.73 570L98.73 627L49.36 655.5L0 627L0 570zM98.73 -57L148.09 -28.5L148.09 28.5L98.73 57L49.36 28.5L49.36 -28.5zM148.09 28.5L197.46 57L197.46 114L148.09 142.5L98.73 114L98.73 57zM98.73 114L148.09 142.5L148.09 199.5L98.73 228L49.36 199.5L49.36 142.5zM148.09 199.5L197.46 228L197.46 285L148.09 313.5L98.73 285L98.73 228zM98.73 285L148.09 313.5L148.09 370.5L98.73 399L49.36 370.5L49.36 313.5zM148.09 370.5L197.46 399L197.46 456L148.09 484.5L98.73 456L98.73 399zM98.73 456L148.09 484.5L148.09 541.5L98.73 570L49.36 541.5L49.36 484.5zM148.09 541.5L197.46 570L197.46 627L148.09 655.5L98.73 627L98.73 570zM197.46 -57L246.82 -28.5L246.82 28.5L197.46 57L148.09 28.5L148.09 -28.5zM246.82 28.5L296.19 57L296.19 114L246.82 142.5L197.46 114L197.46 57zM197.46 114L246.82 142.5L246.82 199.5L197.46 228L148.09 199.5L148.09 142.5zM246.82 199.5L296.19 228L296.19 285L246.82 313.5L197.46 285L197.46 228zM197.46 285L246.82 313.5L246.82 370.5L197.46 399L148.09 370.5L148.09 313.5zM246.82 370.5L296.19 399L296.19 456L246.82 484.5L197.46 456L197.46 399zM197.46 456L246.82 484.5L246.82 541.5L197.46 570L148.09 541.5L148.09 484.5zM246.82 541.5L296.19 570L296.19 627L246.82 655.5L197.46 627L197.46 570zM296.19 -57L345.55 -28.5L345.55 28.5L296.19 57L246.82 28.5L246.82 -28.5zM345.55 28.5L394.92 57L394.92 114L345.55 142.5L296.19 114L296.19 57zM296.19 114L345.55 142.5L345.55 199.5L296.19 228L246.82 199.5L246.82 142.5zM345.55 199.5L394.92 228L394.92 285L345.55 313.5L296.19 285L296.19 228zM296.19 285L345.55 313.5L345.55 370.5L296.19 399L246.82 370.5L246.82 313.5zM345.55 370.5L394.92 399L394.92 456L345.55 484.5L296.19 456L296.19 399zM296.19 456L345.55 484.5L345.55 541.5L296.19 570L246.82 541.5L246.82 484.5zM345.55 541.5L394.92 570L394.92 627L345.55 655.5L296.19 627L296.19 570zM394.92 -57L444.28 -28.5L444.28 28.5L394.92 57L345.55 28.5L345.55 -28.5zM444.28 28.5L493.65 57L493.65 114L444.28 142.5L394.92 114L394.92 57zM394.92 114L444.28 142.5L444.28 199.5L394.92 228L345.55 199.5L345.55 142.5zM444.28 199.5L493.65 228L493.65 285L444.28 313.5L394.92 285L394.92 228zM394.92 285L444.28 313.5L444.28 370.5L394.92 399L345.55 370.5L345.55 313.5zM444.28 370.5L493.65 399L493.65 456L444.28 484.5L394.92 456L394.92 399zM394.92 456L444.28 484.5L444.28 541.5L394.92 570L345.55 541.5L345.55 484.5zM444.28 541.5L493.65 570L493.65 627L444.28 655.5L394.92 627L394.92 570zM493.65 -57L543.01 -28.5L543.01 28.5L493.65 57L444.28 28.5L444.28 -28.5zM543.01 28.5L592.38 57L592.38 114L543.01 142.5L493.65 114L493.65 57zM493.65 114L543.01 142.5L543.01 199.5L493.65 228L444.28 199.5L444.28 142.5zM543.01 199.5L592.38 228L592.38 285L543.01 313.5L493.65 285L493.65 228zM493.65 285L543.01 313.5L543.01 370.5L493.65 399L444.28 370.5L444.28 313.5zM543.01 370.5L592.38 399L592.38 456L543.01 484.5L493.65 456L493.65 399zM493.65 456L543.01 484.5L543.01 541.5L493.65 570L444.28 541.5L444.28 484.5zM543.01 541.5L592.38 570L592.38 627L543.01 655.5L493.65 627L493.65 570zM592.38 -57L641.74 -28.5L641.74 28.5L592.38 57L543.01 28.5L543.01 -28.5zM641.74 28.5L691.11 57L691.11 114L641.74 142.5L592.38 114L592.38 57zM592.38 114L641.74 142.5L641.74 199.5L592.38 228L543.01 199.5L543.01 142.5zM641.74 199.5L691.11 228L691.11 285L641.74 313.5L592.38 285L592.38 228zM592.38 285L641.74 313.5L641.74 370.5L592.38 399L543.01 370.5L543.01 313.5zM641.74 370.5L691.11 399L691.11 456L641.74 484.5L592.38 456L592.38 399zM592.38 456L641.74 484.5L641.74 541.5L592.38 570L543.01 541.5L543.01 484.5zM641.74 541.5L691.11 570L691.11 627L641.74 655.5L592.38 627L592.38 570zM691.11 -57L740.47 -28.5L740.47 28.5L691.11 57L641.74 28.5L641.74 -28.5zM740.47 28.5L789.84 57L789.84 114L740.47 142.5L691.11 114L691.11 57zM691.11 114L740.47 142.5L740.47 199.5L691.11 228L641.74 199.5L641.74 142.5zM740.47 199.5L789.84 228L789.84 285L740.47 313.5L691.11 285L691.11 228zM691.11 285L740.47 313.5L740.47 370.5L691.11 399L641.74 370.5L641.74 313.5zM740.47 370.5L789.84 399L789.84 456L740.47 484.5L691.11 456L691.11 399zM691.11 456L740.47 484.5L740.47 541.5L691.11 570L641.74 541.5L641.74 484.5zM740.47 541.5L789.84 570L789.84 627L740.47 655.5L691.11 627L691.11 570zM789.84 -57L839.2 -28.5L839.2 28.5L789.84 57L740.47 28.5L740.47 -28.5zM839.2 28.5L888.57 57L888.57 114L839.2 142.5L789.84 114L789.84 57zM789.84 114L839.2 142.5L839.2 199.5L789.84 228L740.47 199.5L740.47 142.5zM839.2 199.5L888.57 228L888.57 285L839.2 313.5L789.84 285L789.84 228zM789.84 285L839.2 313.5L839.2 370.5L789.84 399L740.47 370.5L740.47 313.5zM839.2 370.5L888.57 399L888.57 456L839.2 484.5L789.84 456L789.84 399zM789.84 456L839.2 484.5L839.2 541.5L789.84 570L740.47 541.5L740.47 484.5zM839.2 541.5L888.57 570L888.57 627L839.2 655.5L789.84 627L789.84 570zM888.57 -57L937.93 -28.5L937.93 28.5L888.57 57L839.2 28.5L839.2 -28.5zM937.93 28.5L987.3 57L987.3 114L937.93 142.5L888.57 114L888.57 57zM888.57 114L937.93 142.5L937.93 199.5L888.57 228L839.2 199.5L839.2 142.5zM937.93 199.5L987.3 228L987.3 285L937.93 313.5L888.57 285L888.57 228zM888.57 285L937.93 313.5L937.93 370.5L888.57 399L839.2 370.5L839.2 313.5zM937.93 370.5L987.3 399L987.3 456L937.93 484.5L888.57 456L888.57 399zM888.57 456L937.93 484.5L937.93 541.5L888.57 570L839.2 541.5L839.2 484.5zM937.93 541.5L987.3 570L987.3 627L937.93 655.5L888.57 627L888.57 570zM987.3 -57L1036.66 -28.5L1036.66 28.5L987.3 57L937.93 28.5L937.93 -28.5zM1036.66 28.5L1086.03 57L1086.03 114L1036.66 142.5L987.3 114L987.3 57zM987.3 114L1036.66 142.5L1036.66 199.5L987.3 228L937.93 199.5L937.93 142.5zM1036.66 199.5L1086.03 228L1086.03 285L1036.66 313.5L987.3 285L987.3 228zM987.3 285L1036.66 313.5L1036.66 370.5L987.3 399L937.93 370.5L937.93 313.5zM1036.66 370.5L1086.03 399L1086.03 456L1036.66 484.5L987.3 456L987.3 399zM987.3 456L1036.66 484.5L1036.66 541.5L987.3 570L937.93 541.5L937.93 484.5zM1036.66 541.5L1086.03 570L1086.03 627L1036.66 655.5L987.3 627L987.3 570zM1086.03 -57L1135.39 -28.5L1135.39 28.5L1086.03 57L1036.66 28.5L1036.66 -28.5zM1135.39 28.5L1184.76 57L1184.76 114L1135.39 142.5L1086.03 114L1086.03 57zM1086.03 114L1135.39 142.5L1135.39 199.5L1086.03 228L1036.66 199.5L1036.66 142.5zM1135.39 199.5L1184.76 228L1184.76 285L1135.39 313.5L1086.03 285L1086.03 228zM1086.03 285L1135.39 313.5L1135.39 370.5L1086.03 399L1036.66 370.5L1036.66 313.5zM1135.39 370.5L1184.76 399L1184.76 456L1135.39 484.5L1086.03 456L1086.03 399zM1086.03 456L1135.39 484.5L1135.39 541.5L1086.03 570L1036.66 541.5L1036.66 484.5zM1135.39 541.5L1184.76 570L1184.76 627L1135.39 655.5L1086.03 627L1086.03 570zM1184.76 -57L1234.12 -28.5L1234.12 28.5L1184.76 57L1135.39 28.5L1135.39 -28.5zM1234.12 28.5L1283.49 57L1283.49 114L1234.12 142.5L1184.76 114L1184.76 57zM1184.76 114L1234.12 142.5L1234.12 199.5L1184.76 228L1135.39 199.5L1135.39 142.5zM1234.12 199.5L1283.49 228L1283.49 285L1234.12 313.5L1184.76 285L1184.76 228zM1184.76 285L1234.12 313.5L1234.12 370.5L1184.76 399L1135.39 370.5L1135.39 313.5zM1234.12 370.5L1283.49 399L1283.49 456L1234.12 484.5L1184.76 456L1184.76 399zM1184.76 456L1234.12 484.5L1234.12 541.5L1184.76 570L1135.39 541.5L1135.39 484.5zM1234.12 541.5L1283.49 570L1283.49 627L1234.12 655.5L1184.76 627L1184.76 570zM1283.49 -57L1332.85 -28.5L1332.85 28.5L1283.49 57L1234.12 28.5L1234.12 -28.5zM1332.85 28.5L1382.22 57L1382.22 114L1332.85 142.5L1283.49 114L1283.49 57zM1283.49 114L1332.85 142.5L1332.85 199.5L1283.49 228L1234.12 199.5L1234.12 142.5zM1332.85 199.5L1382.22 228L1382.22 285L1332.85 313.5L1283.49 285L1283.49 228zM1283.49 285L1332.85 313.5L1332.85 370.5L1283.49 399L1234.12 370.5L1234.12 313.5zM1332.85 370.5L1382.22 399L1382.22 456L1332.85 484.5L1283.49 456L1283.49 399zM1283.49 456L1332.85 484.5L1332.85 541.5L1283.49 570L1234.12 541.5L1234.12 484.5zM1332.85 541.5L1382.22 570L1382.22 627L1332.85 655.5L1283.49 627L1283.49 570zM1382.22 -57L1431.58 -28.5L1431.58 28.5L1382.22 57L1332.85 28.5L1332.85 -28.5zM1431.58 28.5L1480.95 57L1480.95 114L1431.58 142.5L1382.22 114L1382.22 57zM1382.22 114L1431.58 142.5L1431.58 199.5L1382.22 228L1332.85 199.5L1332.85 142.5zM1431.58 199.5L1480.95 228L1480.95 285L1431.58 313.5L1382.22 285L1382.22 228zM1382.22 285L1431.58 313.5L1431.58 370.5L1382.22 399L1332.85 370.5L1332.85 313.5zM1431.58 370.5L1480.95 399L1480.95 456L1431.58 484.5L1382.22 456L1382.22 399zM1382.22 456L1431.58 484.5L1431.58 541.5L1382.22 570L1332.85 541.5L1332.85 484.5zM1431.58 541.5L1480.95 570L1480.95 627L1431.58 655.5L1382.22 627L1382.22 570z" stroke="rgba(58, 63, 75, 1)" stroke-width="2"></path><path d="M45.96 219.59L89.27 244.59L89.27 294.59L45.96 319.59L2.66 294.59L2.66 244.59zM89.27 294.59L132.57 319.59L132.57 369.59L89.27 394.59L45.96 369.59L45.96 319.59zM132.57 519.59L175.87 544.59L175.87 594.59L132.57 619.59L89.27 594.59L89.27 544.59zM175.87 -5.41L219.17 19.59L219.17 69.59L175.87 94.59L132.57 69.59L132.57 19.59zM219.17 519.59L262.48 544.59L262.48 594.59L219.17 619.59L175.87 594.59L175.87 544.59zM262.48 144.59L305.78 169.59L305.78 219.59L262.48 244.59L219.17 219.59L219.17 169.59zM305.78 219.59L349.08 244.59L349.08 294.59L305.78 319.59L262.48 294.59L262.48 244.59zM435.69 294.59L478.99 319.59L478.99 369.59L435.69 394.59L392.38 369.59L392.38 319.59zM478.99 369.59L522.29 394.59L522.29 444.59L478.99 469.59L435.69 444.59L435.69 394.59zM478.99 519.59L522.29 544.59L522.29 594.59L478.99 619.59L435.69 594.59L435.69 544.59zM565.59 219.59L608.89 244.59L608.89 294.59L565.59 319.59L522.29 294.59L522.29 244.59zM522.29 444.59L565.59 469.59L565.59 519.59L522.29 544.59L478.99 519.59L478.99 469.59zM652.2 219.59L695.5 244.59L695.5 294.59L652.2 319.59L608.89 294.59L608.89 244.59zM825.41 519.59L868.71 544.59L868.71 594.59L825.41 619.59L782.11 594.59L782.11 544.59zM912.01 69.59L955.32 94.59L955.32 144.59L912.01 169.59L868.71 144.59L868.71 94.59zM868.71 444.59L912.01 469.59L912.01 519.59L868.71 544.59L825.41 519.59L825.41 469.59zM912.01 519.59L955.32 544.59L955.32 594.59L912.01 619.59L868.71 594.59L868.71 544.59zM998.62 219.59L1041.92 244.59L1041.92 294.59L998.62 319.59L955.32 294.59L955.32 244.59zM1128.53 144.59L1171.83 169.59L1171.83 219.59L1128.53 244.59L1085.22 219.59L1085.22 169.59zM1128.53 294.59L1171.83 319.59L1171.83 369.59L1128.53 394.59L1085.22 369.59L1085.22 319.59zM1215.13 144.59L1258.43 169.59L1258.43 219.59L1215.13 244.59L1171.83 219.59L1171.83 169.59zM1258.43 369.59L1301.74 394.59L1301.74 444.59L1258.43 469.59L1215.13 444.59L1215.13 394.59zM1345.04 369.59L1388.34 394.59L1388.34 444.59L1345.04 469.59L1301.74 444.59L1301.74 394.59zM1301.74 444.59L1345.04 469.59L1345.04 519.59L1301.74 544.59L1258.43 519.59L1258.43 469.59zM1431.64 519.59L1474.95 544.59L1474.95 594.59L1431.64 619.59L1388.34 594.59L1388.34 544.59z" stroke="rgba(39, 42, 49, 1)" stroke-width="2"></path><path d="M40.96 219.59 a5 5 0 1 0 10 0 a5 5 0 1 0 -10 0zM84.27 244.59 a5 5 0 1 0 10 0 a5 5 0 1 0 -10 0zM84.27 294.59 a5 5 0 1 0 10 0 a5 5 0 1 0 -10 0zM40.96 319.59 a5 5 0 1 0 10 0 a5 5 0 1 0 -10 0zM-2.34 294.59 a5 5 0 1 0 10 0 a5 5 0 1 0 -10 0zM-2.34 244.59 a5 5 0 1 0 10 0 a5 5 0 1 0 -10 0zM127.57 319.59 a5 5 0 1 0 10 0 a5 5 0 1 0 -10 0zM127.57 369.59 a5 5 0 1 0 10 0 a5 5 0 1 0 -10 0zM84.27 394.59 a5 5 0 1 0 10 0 a5 5 0 1 0 -10 0zM40.96 369.59 a5 5 0 1 0 10 0 a5 5 0 1 0 -10 0zM127.57 519.59 a5 5 0 1 0 10 0 a5 5 0 1 0 -10 0zM170.87 544.59 a5 5 0 1 0 10 0 a5 5 0 1 0 -10 0zM170.87 594.59 a5 5 0 1 0 10 0 a5 5 0 1 0 -10 0zM127.57 619.59 a5 5 0 1 0 10 0 a5 5 0 1 0 -10 0zM84.27 594.59 a5 5 0 1 0 10 0 a5 5 0 1 0 -10 0zM84.27 544.59 a5 5 0 1 0 10 0 a5 5 0 1 0 -10 0zM170.87 -5.41 a5 5 0 1 0 10 0 a5 5 0 1 0 -10 0zM214.17 19.59 a5 5 0 1 0 10 0 a5 5 0 1 0 -10 0zM214.17 69.59 a5 5 0 1 0 10 0 a5 5 0 1 0 -10 0zM170.87 94.59 a5 5 0 1 0 10 0 a5 5 0 1 0 -10 0zM127.57 69.59 a5 5 0 1 0 10 0 a5 5 0 1 0 -10 0zM127.57 19.59 a5 5 0 1 0 10 0 a5 5 0 1 0 -10 0zM214.17 519.59 a5 5 0 1 0 10 0 a5 5 0 1 0 -10 0zM257.48 544.59 a5 5 0 1 0 10 0 a5 5 0 1 0 -10 0zM257.48 594.59 a5 5 0 1 0 10 0 a5 5 0 1 0 -10 0zM214.17 619.59 a5 5 0 1 0 10 0 a5 5 0 1 0 -10 0zM257.48 144.59 a5 5 0 1 0 10 0 a5 5 0 1 0 -10 0zM300.78 169.59 a5 5 0 1 0 10 0 a5 5 0 1 0 -10 0zM300.78 219.59 a5 5 0 1 0 10 0 a5 5 0 1 0 -10 0zM257.48 244.59 a5 5 0 1 0 10 0 a5 5 0 1 0 -10 0zM214.17 219.59 a5 5 0 1 0 10 0 a5 5 0 1 0 -10 0zM214.17 169.59 a5 5 0 1 0 10 0 a5 5 0 1 0 -10 0zM344.08 244.59 a5 5 0 1 0 10 0 a5 5 0 1 0 -10 0zM344.08 294.59 a5 5 0 1 0 10 0 a5 5 0 1 0 -10 0zM300.78 319.59 a5 5 0 1 0 10 0 a5 5 0 1 0 -10 0zM257.48 294.59 a5 5 0 1 0 10 0 a5 5 0 1 0 -10 0zM430.69 294.59 a5 5 0 1 0 10 0 a5 5 0 1 0 -10 0zM473.99 319.59 a5 5 0 1 0 10 0 a5 5 0 1 0 -10 0zM473.99 369.59 a5 5 0 1 0 10 0 a5 5 0 1 0 -10 0zM430.69 394.59 a5 5 0 1 0 10 0 a5 5 0 1 0 -10 0zM387.38 369.59 a5 5 0 1 0 10 0 a5 5 0 1 0 -10 0zM387.38 319.59 a5 5 0 1 0 10 0 a5 5 0 1 0 -10 0zM517.29 394.59 a5 5 0 1 0 10 0 a5 5 0 1 0 -10 0zM517.29 444.59 a5 5 0 1 0 10 0 a5 5 0 1 0 -10 0zM473.99 469.59 a5 5 0 1 0 10 0 a5 5 0 1 0 -10 0zM430.69 444.59 a5 5 0 1 0 10 0 a5 5 0 1 0 -10 0zM473.99 519.59 a5 5 0 1 0 10 0 a5 5 0 1 0 -10 0zM517.29 544.59 a5 5 0 1 0 10 0 a5 5 0 1 0 -10 0zM517.29 594.59 a5 5 0 1 0 10 0 a5 5 0 1 0 -10 0zM473.99 619.59 a5 5 0 1 0 10 0 a5 5 0 1 0 -10 0zM430.69 594.59 a5 5 0 1 0 10 0 a5 5 0 1 0 -10 0zM430.69 544.59 a5 5 0 1 0 10 0 a5 5 0 1 0 -10 0zM560.59 219.59 a5 5 0 1 0 10 0 a5 5 0 1 0 -10 0zM603.89 244.59 a5 5 0 1 0 10 0 a5 5 0 1 0 -10 0zM603.89 294.59 a5 5 0 1 0 10 0 a5 5 0 1 0 -10 0zM560.59 319.59 a5 5 0 1 0 10 0 a5 5 0 1 0 -10 0zM517.29 294.59 a5 5 0 1 0 10 0 a5 5 0 1 0 -10 0zM517.29 244.59 a5 5 0 1 0 10 0 a5 5 0 1 0 -10 0zM560.59 469.59 a5 5 0 1 0 10 0 a5 5 0 1 0 -10 0zM560.59 519.59 a5 5 0 1 0 10 0 a5 5 0 1 0 -10 0zM647.2 219.59 a5 5 0 1 0 10 0 a5 5 0 1 0 -10 0zM690.5 244.59 a5 5 0 1 0 10 0 a5 5 0 1 0 -10 0zM690.5 294.59 a5 5 0 1 0 10 0 a5 5 0 1 0 -10 0zM647.2 319.59 a5 5 0 1 0 10 0 a5 5 0 1 0 -10 0zM820.41 519.59 a5 5 0 1 0 10 0 a5 5 0 1 0 -10 0zM863.71 544.59 a5 5 0 1 0 10 0 a5 5 0 1 0 -10 0zM863.71 594.59 a5 5 0 1 0 10 0 a5 5 0 1 0 -10 0zM820.41 619.59 a5 5 0 1 0 10 0 a5 5 0 1 0 -10 0zM777.11 594.59 a5 5 0 1 0 10 0 a5 5 0 1 0 -10 0zM777.11 544.59 a5 5 0 1 0 10 0 a5 5 0 1 0 -10 0zM907.01 69.59 a5 5 0 1 0 10 0 a5 5 0 1 0 -10 0zM950.32 94.59 a5 5 0 1 0 10 0 a5 5 0 1 0 -10 0zM950.32 144.59 a5 5 0 1 0 10 0 a5 5 0 1 0 -10 0zM907.01 169.59 a5 5 0 1 0 10 0 a5 5 0 1 0 -10 0zM863.71 144.59 a5 5 0 1 0 10 0 a5 5 0 1 0 -10 0zM863.71 94.59 a5 5 0 1 0 10 0 a5 5 0 1 0 -10 0zM863.71 444.59 a5 5 0 1 0 10 0 a5 5 0 1 0 -10 0zM907.01 469.59 a5 5 0 1 0 10 0 a5 5 0 1 0 -10 0zM907.01 519.59 a5 5 0 1 0 10 0 a5 5 0 1 0 -10 0zM820.41 469.59 a5 5 0 1 0 10 0 a5 5 0 1 0 -10 0zM950.32 544.59 a5 5 0 1 0 10 0 a5 5 0 1 0 -10 0zM950.32 594.59 a5 5 0 1 0 10 0 a5 5 0 1 0 -10 0zM907.01 619.59 a5 5 0 1 0 10 0 a5 5 0 1 0 -10 0zM993.62 219.59 a5 5 0 1 0 10 0 a5 5 0 1 0 -10 0zM1036.92 244.59 a5 5 0 1 0 10 0 a5 5 0 1 0 -10 0zM1036.92 294.59 a5 5 0 1 0 10 0 a5 5 0 1 0 -10 0zM993.62 319.59 a5 5 0 1 0 10 0 a5 5 0 1 0 -10 0zM950.32 294.59 a5 5 0 1 0 10 0 a5 5 0 1 0 -10 0zM950.32 244.59 a5 5 0 1 0 10 0 a5 5 0 1 0 -10 0zM1123.53 144.59 a5 5 0 1 0 10 0 a5 5 0 1 0 -10 0zM1166.83 169.59 a5 5 0 1 0 10 0 a5 5 0 1 0 -10 0zM1166.83 219.59 a5 5 0 1 0 10 0 a5 5 0 1 0 -10 0zM1123.53 244.59 a5 5 0 1 0 10 0 a5 5 0 1 0 -10 0zM1080.22 219.59 a5 5 0 1 0 10 0 a5 5 0 1 0 -10 0zM1080.22 169.59 a5 5 0 1 0 10 0 a5 5 0 1 0 -10 0zM1123.53 294.59 a5 5 0 1 0 10 0 a5 5 0 1 0 -10 0zM1166.83 319.59 a5 5 0 1 0 10 0 a5 5 0 1 0 -10 0zM1166.83 369.59 a5 5 0 1 0 10 0 a5 5 0 1 0 -10 0zM1123.53 394.59 a5 5 0 1 0 10 0 a5 5 0 1 0 -10 0zM1080.22 369.59 a5 5 0 1 0 10 0 a5 5 0 1 0 -10 0zM1080.22 319.59 a5 5 0 1 0 10 0 a5 5 0 1 0 -10 0zM1210.13 144.59 a5 5 0 1 0 10 0 a5 5 0 1 0 -10 0zM1253.43 169.59 a5 5 0 1 0 10 0 a5 5 0 1 0 -10 0zM1253.43 219.59 a5 5 0 1 0 10 0 a5 5 0 1 0 -10 0zM1210.13 244.59 a5 5 0 1 0 10 0 a5 5 0 1 0 -10 0zM1253.43 369.59 a5 5 0 1 0 10 0 a5 5 0 1 0 -10 0zM1296.74 394.59 a5 5 0 1 0 10 0 a5 5 0 1 0 -10 0zM1296.74 444.59 a5 5 0 1 0 10 0 a5 5 0 1 0 -10 0zM1253.43 469.59 a5 5 0 1 0 10 0 a5 5 0 1 0 -10 0zM1210.13 444.59 a5 5 0 1 0 10 0 a5 5 0 1 0 -10 0zM1210.13 394.59 a5 5 0 1 0 10 0 a5 5 0 1 0 -10 0zM1340.04 369.59 a5 5 0 1 0 10 0 a5 5 0 1 0 -10 0zM1383.34 394.59 a5 5 0 1 0 10 0 a5 5 0 1 0 -10 0zM1383.34 444.59 a5 5 0 1 0 10 0 a5 5 0 1 0 -10 0zM1340.04 469.59 a5 5 0 1 0 10 0 a5 5 0 1 0 -10 0zM1340.04 519.59 a5 5 0 1 0 10 0 a5 5 0 1 0 -10 0zM1296.74 544.59 a5 5 0 1 0 10 0 a5 5 0 1 0 -10 0zM1253.43 519.59 a5 5 0 1 0 10 0 a5 5 0 1 0 -10 0zM1426.64 519.59 a5 5 0 1 0 10 0 a5 5 0 1 0 -10 0zM1469.95 544.59 a5 5 0 1 0 10 0 a5 5 0 1 0 -10 0zM1469.95 594.59 a5 5 0 1 0 10 0 a5 5 0 1 0 -10 0zM1426.64 619.59 a5 5 0 1 0 10 0 a5 5 0 1 0 -10 0zM1383.34 594.59 a5 5 0 1 0 10 0 a5 5 0 1 0 -10 0zM1383.34 544.59 a5 5 0 1 0 10 0 a5 5 0 1 0 -10 0z" fill="rgba(39, 42, 49, 1)"></path></g><defs><mask id="SvgjsMask1072"><rect width="1440" height="560" fill="#ffffff"></rect></mask></defs></svg>